<mxfile host="app.diagrams.net" modified="2020-11-11T05:57:14.318Z" agent="5.0 (Windows NT 10.0; Win64; x64) AppleWebKit/537.36 (KHTML, like Gecko) Chrome/86.0.4240.193 Safari/537.36" etag="7tT2pKsZOW7-jxl2fSD8" version="13.9.3" type="github" pages="2">
  <diagram id="C5RBs43oDa-KdzZeNtuy" name="Page-1">
    <mxGraphModel dx="1038" dy="500" grid="1" gridSize="10" guides="1" tooltips="1" connect="1" arrows="1" fold="1" page="1" pageScale="1" pageWidth="827" pageHeight="1169" math="0" shadow="0">
      <root>
        <mxCell id="WIyWlLk6GJQsqaUBKTNV-0" />
        <mxCell id="WIyWlLk6GJQsqaUBKTNV-1" parent="WIyWlLk6GJQsqaUBKTNV-0" />
        <mxCell id="0No3rV7-XhalD0O4r069-0" style="edgeStyle=orthogonalEdgeStyle;rounded=0;orthogonalLoop=1;jettySize=auto;html=1;exitX=0.5;exitY=1;exitDx=0;exitDy=0;entryX=0.5;entryY=0;entryDx=0;entryDy=0;" edge="1" parent="WIyWlLk6GJQsqaUBKTNV-1" source="0No3rV7-XhalD0O4r069-1" target="0No3rV7-XhalD0O4r069-3">
          <mxGeometry relative="1" as="geometry" />
        </mxCell>
        <mxCell id="0No3rV7-XhalD0O4r069-1" value="点击开始，定时器开始计时，间隔1000" style="rounded=1;whiteSpace=wrap;html=1;fontSize=12;glass=0;strokeWidth=1;shadow=0;" vertex="1" parent="WIyWlLk6GJQsqaUBKTNV-1">
          <mxGeometry x="344" y="80" width="120" height="40" as="geometry" />
        </mxCell>
        <mxCell id="0No3rV7-XhalD0O4r069-2" style="edgeStyle=orthogonalEdgeStyle;rounded=0;orthogonalLoop=1;jettySize=auto;html=1;exitX=0.5;exitY=1;exitDx=0;exitDy=0;entryX=0.5;entryY=0;entryDx=0;entryDy=0;" edge="1" parent="WIyWlLk6GJQsqaUBKTNV-1" source="0No3rV7-XhalD0O4r069-3" target="0No3rV7-XhalD0O4r069-5">
          <mxGeometry relative="1" as="geometry" />
        </mxCell>
        <mxCell id="0No3rV7-XhalD0O4r069-3" value="显示最近更新的一组数据" style="rounded=1;whiteSpace=wrap;html=1;fontSize=12;glass=0;strokeWidth=1;shadow=0;" vertex="1" parent="WIyWlLk6GJQsqaUBKTNV-1">
          <mxGeometry x="329" y="153" width="150" height="40" as="geometry" />
        </mxCell>
        <mxCell id="0No3rV7-XhalD0O4r069-4" style="edgeStyle=orthogonalEdgeStyle;rounded=0;orthogonalLoop=1;jettySize=auto;html=1;exitX=0.5;exitY=1;exitDx=0;exitDy=0;entryX=0.5;entryY=0;entryDx=0;entryDy=0;" edge="1" parent="WIyWlLk6GJQsqaUBKTNV-1" source="0No3rV7-XhalD0O4r069-5" target="0No3rV7-XhalD0O4r069-7">
          <mxGeometry relative="1" as="geometry" />
        </mxCell>
        <mxCell id="0No3rV7-XhalD0O4r069-5" value="添加绘图的队列值" style="rounded=1;whiteSpace=wrap;html=1;fontSize=12;glass=0;strokeWidth=1;shadow=0;" vertex="1" parent="WIyWlLk6GJQsqaUBKTNV-1">
          <mxGeometry x="354" y="225" width="100" height="40" as="geometry" />
        </mxCell>
        <mxCell id="0No3rV7-XhalD0O4r069-6" style="edgeStyle=orthogonalEdgeStyle;rounded=0;orthogonalLoop=1;jettySize=auto;html=1;exitX=0.5;exitY=1;exitDx=0;exitDy=0;entryX=0.5;entryY=0;entryDx=0;entryDy=0;" edge="1" parent="WIyWlLk6GJQsqaUBKTNV-1" source="0No3rV7-XhalD0O4r069-7" target="0No3rV7-XhalD0O4r069-9">
          <mxGeometry relative="1" as="geometry" />
        </mxCell>
        <mxCell id="0No3rV7-XhalD0O4r069-7" value="更新队列值，达到100个删除前面的值" style="rounded=1;whiteSpace=wrap;html=1;fontSize=12;glass=0;strokeWidth=1;shadow=0;" vertex="1" parent="WIyWlLk6GJQsqaUBKTNV-1">
          <mxGeometry x="344" y="298" width="120" height="40" as="geometry" />
        </mxCell>
        <mxCell id="0No3rV7-XhalD0O4r069-8" style="edgeStyle=orthogonalEdgeStyle;rounded=0;orthogonalLoop=1;jettySize=auto;html=1;exitX=0.5;exitY=1;exitDx=0;exitDy=0;entryX=0.5;entryY=0;entryDx=0;entryDy=0;" edge="1" parent="WIyWlLk6GJQsqaUBKTNV-1" source="0No3rV7-XhalD0O4r069-9" target="0No3rV7-XhalD0O4r069-3">
          <mxGeometry relative="1" as="geometry">
            <Array as="points">
              <mxPoint x="404" y="430" />
              <mxPoint x="499" y="430" />
              <mxPoint x="499" y="133" />
              <mxPoint x="404" y="133" />
            </Array>
          </mxGeometry>
        </mxCell>
        <mxCell id="0No3rV7-XhalD0O4r069-11" style="edgeStyle=orthogonalEdgeStyle;rounded=0;orthogonalLoop=1;jettySize=auto;html=1;exitX=0.5;exitY=1;exitDx=0;exitDy=0;entryX=0.5;entryY=0;entryDx=0;entryDy=0;" edge="1" parent="WIyWlLk6GJQsqaUBKTNV-1" source="0No3rV7-XhalD0O4r069-9" target="0No3rV7-XhalD0O4r069-10">
          <mxGeometry relative="1" as="geometry" />
        </mxCell>
        <mxCell id="0No3rV7-XhalD0O4r069-9" value="绘制图像" style="rounded=1;whiteSpace=wrap;html=1;fontSize=12;glass=0;strokeWidth=1;shadow=0;" vertex="1" parent="WIyWlLk6GJQsqaUBKTNV-1">
          <mxGeometry x="344" y="370" width="120" height="40" as="geometry" />
        </mxCell>
        <mxCell id="0No3rV7-XhalD0O4r069-10" value="点击停止，&lt;br&gt;定时器结束计时" style="rounded=1;whiteSpace=wrap;html=1;fontSize=12;glass=0;strokeWidth=1;shadow=0;" vertex="1" parent="WIyWlLk6GJQsqaUBKTNV-1">
          <mxGeometry x="344" y="460" width="120" height="40" as="geometry" />
        </mxCell>
      </root>
    </mxGraphModel>
  </diagram>
  <diagram id="nHJY70wAiK4pFA2Q6qoI" name="Page-2">
    <mxGraphModel dx="1038" dy="500" grid="1" gridSize="10" guides="1" tooltips="1" connect="1" arrows="1" fold="1" page="1" pageScale="1" pageWidth="827" pageHeight="1169" math="0" shadow="0">
      <root>
        <mxCell id="ToN8fe8m32paI8Wa2jK_-0" />
        <mxCell id="ToN8fe8m32paI8Wa2jK_-1" parent="ToN8fe8m32paI8Wa2jK_-0" />
        <mxCell id="Raz3HJT69iVWB1PUnjqN-0" style="edgeStyle=orthogonalEdgeStyle;rounded=0;orthogonalLoop=1;jettySize=auto;html=1;exitX=0.5;exitY=1;exitDx=0;exitDy=0;entryX=0.5;entryY=0;entryDx=0;entryDy=0;" edge="1" parent="ToN8fe8m32paI8Wa2jK_-1" source="Raz3HJT69iVWB1PUnjqN-1" target="Raz3HJT69iVWB1PUnjqN-4">
          <mxGeometry relative="1" as="geometry" />
        </mxCell>
        <mxCell id="Raz3HJT69iVWB1PUnjqN-1" value="设置串口及波特率等" style="rounded=1;whiteSpace=wrap;html=1;fontSize=12;glass=0;strokeWidth=1;shadow=0;" vertex="1" parent="ToN8fe8m32paI8Wa2jK_-1">
          <mxGeometry x="57.5" y="120" width="120" height="40" as="geometry" />
        </mxCell>
        <mxCell id="Raz3HJT69iVWB1PUnjqN-2" value="" style="edgeStyle=orthogonalEdgeStyle;rounded=0;orthogonalLoop=1;jettySize=auto;html=1;" edge="1" parent="ToN8fe8m32paI8Wa2jK_-1" source="Raz3HJT69iVWB1PUnjqN-4" target="Raz3HJT69iVWB1PUnjqN-5">
          <mxGeometry relative="1" as="geometry" />
        </mxCell>
        <mxCell id="Raz3HJT69iVWB1PUnjqN-3" value="" style="edgeStyle=orthogonalEdgeStyle;rounded=0;orthogonalLoop=1;jettySize=auto;html=1;" edge="1" parent="ToN8fe8m32paI8Wa2jK_-1" source="Raz3HJT69iVWB1PUnjqN-4" target="Raz3HJT69iVWB1PUnjqN-8">
          <mxGeometry relative="1" as="geometry" />
        </mxCell>
        <mxCell id="Raz3HJT69iVWB1PUnjqN-4" value="点击打开端口，&lt;br&gt;判断端口是否正确" style="rhombus;whiteSpace=wrap;html=1;shadow=0;fontFamily=Helvetica;fontSize=12;align=center;strokeWidth=1;spacing=6;spacingTop=-4;" vertex="1" parent="ToN8fe8m32paI8Wa2jK_-1">
          <mxGeometry x="50" y="200" width="135" height="80" as="geometry" />
        </mxCell>
        <mxCell id="Raz3HJT69iVWB1PUnjqN-5" value="显示错误信息" style="rounded=1;whiteSpace=wrap;html=1;fontSize=12;glass=0;strokeWidth=1;shadow=0;" vertex="1" parent="ToN8fe8m32paI8Wa2jK_-1">
          <mxGeometry x="227.5" y="220" width="120" height="40" as="geometry" />
        </mxCell>
        <mxCell id="Raz3HJT69iVWB1PUnjqN-6" value="显示在文本框内" style="rounded=1;whiteSpace=wrap;html=1;fontSize=12;glass=0;strokeWidth=1;shadow=0;" vertex="1" parent="ToN8fe8m32paI8Wa2jK_-1">
          <mxGeometry x="57.5" y="430" width="120" height="40" as="geometry" />
        </mxCell>
        <mxCell id="Raz3HJT69iVWB1PUnjqN-7" style="edgeStyle=orthogonalEdgeStyle;rounded=0;orthogonalLoop=1;jettySize=auto;html=1;exitX=0.5;exitY=1;exitDx=0;exitDy=0;entryX=0.5;entryY=0;entryDx=0;entryDy=0;" edge="1" parent="ToN8fe8m32paI8Wa2jK_-1" source="Raz3HJT69iVWB1PUnjqN-8" target="Raz3HJT69iVWB1PUnjqN-6">
          <mxGeometry relative="1" as="geometry" />
        </mxCell>
        <mxCell id="Raz3HJT69iVWB1PUnjqN-8" value="串口数据接收" style="rounded=1;whiteSpace=wrap;html=1;fontSize=12;glass=0;strokeWidth=1;shadow=0;" vertex="1" parent="ToN8fe8m32paI8Wa2jK_-1">
          <mxGeometry x="57.5" y="340" width="120" height="40" as="geometry" />
        </mxCell>
        <mxCell id="Raz3HJT69iVWB1PUnjqN-9" value="Y" style="text;html=1;strokeColor=none;fillColor=none;align=center;verticalAlign=middle;whiteSpace=wrap;rounded=0;" vertex="1" parent="ToN8fe8m32paI8Wa2jK_-1">
          <mxGeometry x="67.5" y="300" width="40" height="20" as="geometry" />
        </mxCell>
        <mxCell id="Raz3HJT69iVWB1PUnjqN-10" value="N" style="text;html=1;strokeColor=none;fillColor=none;align=center;verticalAlign=middle;whiteSpace=wrap;rounded=0;" vertex="1" parent="ToN8fe8m32paI8Wa2jK_-1">
          <mxGeometry x="185.5" y="260" width="40" height="20" as="geometry" />
        </mxCell>
      </root>
    </mxGraphModel>
  </diagram>
</mxfile>
